<svg width="1024" height="1024" viewBox="0 0 1024 1024" fill="none" xmlns="http://www.w3.org/2000/svg">
<g clip-path="url(#clip0_8_99)">
<rect x="-103" width="1227" height="1749" fill="url(#paint0_linear_8_99)"/>
<rect x="-103" width="1227" height="1749" fill="url(#paint1_linear_8_99)"/>
<path fill-rule="evenodd" clip-rule="evenodd" d="M724.367 114L732.254 118.476C736.591 120.951 742.207 125.365 744.714 128.312C747.238 131.26 750.377 136.146 751.686 139.188C753.405 143.144 754.241 151.735 755.125 194.356L790.219 194.34C816.844 194.325 827.317 194.892 833.595 196.705C839.525 198.407 844.036 201.213 849.478 206.572C854.51 211.521 857.98 216.723 859.746 221.94C862.191 229.222 862.365 251.242 861.592 797.264L856.86 805.696C854.257 810.33 849.652 815.973 846.607 818.227C843.563 820.497 837.538 823.618 833.2 825.179C825.708 827.858 809.62 828 512.222 828C214.823 828 198.735 827.858 191.243 825.179C186.905 823.618 180.628 820.245 177.3 817.676C173.656 814.87 169.413 809.274 162 794.111L162.016 512.754C162.032 266.595 162.331 230.357 164.413 223.122C166.164 217.038 168.877 212.766 174.681 206.966C180.47 201.181 184.76 198.454 190.849 196.689C198.01 194.624 216.842 194.356 460.96 195.16L470.423 198.77C475.629 200.74 483.089 204.239 486.985 206.509C490.881 208.794 498.168 214.8 512.222 229.033L521.291 219.844C526.275 214.8 533.547 208.794 537.458 206.509C541.37 204.239 548.815 200.819 554.02 198.927C562.111 195.98 567.553 195.396 619.477 194.356L619.462 172.683C619.451 158.234 620.219 148.383 621.765 143.129C623.042 138.763 626.733 132.174 630.061 128.328C633.342 124.529 639.225 119.769 643.137 117.767C649.951 114.268 651.717 114.11 724.367 114ZM647.08 164.66V180.958H727.522C728.279 163.856 728.09 156.59 727.617 153.768C727.128 150.947 724.951 146.864 722.79 144.705C718.847 140.764 718.847 140.764 687.396 140.764C656.433 140.764 655.881 140.827 651.512 144.563C647.19 148.283 647.08 148.756 647.08 164.66ZM646.291 247.948H728.311V208.542H646.291V247.948ZM191.353 229.065C189.192 232.532 188.924 260.085 188.893 476.895C188.877 679.299 189.24 721.557 191.022 725.151C192.205 727.531 194.508 730.195 196.148 731.062C198.025 732.055 247.899 732.922 331.622 733.426L464.114 734.214C478.783 740.188 486.417 744.271 490.534 747.14L498.026 752.341C498.026 284.059 497.805 263.159 495.408 257.011C493.972 253.323 490.518 247.128 487.742 243.219C484.966 239.326 479.225 233.856 474.982 231.082C470.739 228.324 463.01 224.951 457.805 223.595C449.619 221.467 431.638 221.136 324.524 221.168C228.152 221.199 199.934 221.641 197.237 223.17C195.344 224.257 192.694 226.921 191.353 229.065ZM548.894 231.461C544.335 234.455 538.547 239.925 536.007 243.613C533.468 247.302 530.266 253.512 528.878 257.405C526.607 263.789 526.354 288.835 526.386 508.42L526.417 752.341C538.026 744.271 545.66 740.188 550.865 738.076L560.329 734.214C786.166 732.875 826.245 732.118 828.469 730.873C830.204 729.911 832.522 727.074 833.611 724.568C835.204 720.958 835.519 669.589 835.188 474.578L834.778 229.128C827.68 222.035 826.718 221.924 791.355 221.546L755.125 221.152C754.336 554.13 754.304 556.195 751.039 564.77C749.241 569.53 740.456 586.207 731.544 601.811C722.632 617.416 713.342 633.367 710.897 637.276C708.452 641.185 703.736 645.946 700.424 647.869C696.859 649.933 691.67 651.384 687.695 651.415C684.004 651.447 678.153 650.044 674.683 648.31C671.213 646.576 667.08 643.203 665.487 640.823C663.894 638.443 654.525 622.302 644.651 604.964C634.793 587.625 625.266 569.893 623.5 565.558C620.313 557.803 620.266 554.855 619.84 389.414L619.43 221.152C582.522 221.325 571.433 222.192 565.85 223.674C561.086 224.951 553.452 228.45 548.894 231.461ZM646.023 410.567L646.291 544.279H673.105V274.744C653.957 274.744 647.806 275.217 647.08 275.8C646.355 276.367 645.881 337.021 646.023 410.567ZM699.651 410.567L699.919 544.279H728.311L727.522 275.532C707.853 274.823 701.512 275.122 700.771 275.737C699.998 276.352 699.509 336.374 699.651 410.567ZM671.922 597.934C679.951 611.852 686.875 623.216 687.301 623.185C687.727 623.169 694.478 612.025 702.285 598.422C710.093 584.819 716.654 573.108 716.875 572.383C717.096 571.658 703.784 571.075 687.301 571.075C670.818 571.075 657.332 571.437 657.332 571.863C657.332 572.288 663.894 584.031 671.922 597.934ZM192.82 794.899L196.763 799.628H496.449C494.966 794.127 492.931 789.698 490.96 786.23C488.988 782.762 484.256 777.135 480.471 773.715C476.685 770.294 470.376 766.038 466.48 764.257C459.54 761.089 456.464 760.995 326.89 760.222C254.019 759.797 193.262 758.819 191.89 758.079C189.666 756.896 189.334 758.677 189.129 773.447C188.893 789.162 189.114 790.454 192.82 794.899ZM696.37 760.033C574.241 760.222 568.657 760.348 560.723 763.296C556.165 764.982 548.973 769.412 544.73 773.147C540.503 776.867 535.424 782.762 533.468 786.23C531.512 789.698 529.477 794.127 528.941 796.081L527.995 799.628H827.68C835.282 790.517 835.566 788.957 835.566 773.62C835.566 764.525 835.03 757.149 834.383 757.259C833.737 757.353 831.071 757.984 828.469 758.646C825.866 759.308 766.418 759.938 696.37 760.033ZM336.748 274.87C336.969 274.807 339.445 275.674 342.269 276.809C345.77 278.227 348.026 280.592 349.398 284.296C350.486 287.275 351.354 292.918 351.306 296.811C351.228 303.715 351.401 303.967 357.994 306.568C361.701 308.034 368.53 312.652 373.168 316.813C377.805 320.99 383.341 327.941 385.471 332.276C387.71 336.816 389.777 344.508 390.344 350.403C391.259 359.986 391.054 360.932 387.174 364.983C384.43 367.852 381.401 369.317 378.231 369.317C375.502 369.317 371.638 367.773 369.335 365.771C366.385 363.233 364.824 359.781 363.783 353.555C362.947 348.574 360.66 342.711 358.404 339.763C356.259 336.942 352.363 333.584 349.761 332.276C347.158 330.984 341.306 329.896 336.748 329.864C330.723 329.833 326.953 330.81 322.947 333.427C319.903 335.413 315.786 340.22 313.767 344.114C311.149 349.189 310.265 353.224 310.612 358.378C310.959 363.186 312.552 367.473 315.455 371.382C317.836 374.582 322.095 378.349 324.918 379.736C327.742 381.139 335.376 382.873 341.874 383.614C348.83 384.402 356.953 386.53 361.59 388.8C365.928 390.912 372.521 396.098 376.243 400.29C379.982 404.499 384.572 411.135 386.464 415.028C389.225 420.687 389.919 424.974 389.95 436.307C389.982 448.476 389.382 451.723 385.786 459.163C383.357 464.175 377.868 471.315 372.773 476.107C367.931 480.662 361.18 485.265 351.606 488.323L350.833 499.356C350.187 508.766 349.461 510.91 345.975 513.936C343.688 515.922 339.776 517.483 337.142 517.483C334.193 517.483 330.928 516.001 328.467 513.542C325.076 510.154 324.524 508.183 324.524 499.356C324.524 489.615 324.303 489.032 320.187 487.487C317.805 486.605 313.483 484.65 310.597 483.153C307.71 481.671 302.205 477.068 298.373 472.955C294.54 468.841 289.887 462.094 288.026 457.98C286.18 453.866 284.303 446.6 283.877 441.824C283.183 434.195 283.578 432.587 287.111 428.426C290.218 424.753 292.426 423.697 296.921 423.697C301.275 423.697 303.672 424.785 306.527 428.032C308.735 430.554 310.328 434.353 310.328 437.095C310.328 439.696 311.275 444.125 312.442 446.947C313.609 449.768 317.158 454.371 320.328 457.192C324.098 460.55 328.42 462.646 332.805 463.292C336.496 463.828 341.985 463.481 345.029 462.536C348.073 461.59 352.805 458.485 355.581 455.648C358.341 452.81 361.354 448.539 362.284 446.159C363.199 443.779 363.956 439.349 363.956 436.307C363.956 433.281 362.537 427.953 360.802 424.485C359.067 421.018 355.344 416.636 352.521 414.744C349.193 412.522 343.247 410.835 335.565 409.937C328.704 409.133 319.84 406.753 314.461 404.294C308.846 401.725 302.458 397.091 298.294 392.567C294.492 388.453 289.808 381.707 287.868 377.593C285.076 371.682 284.335 367.284 284.319 356.708C284.303 345.627 284.997 341.812 288.341 334.64C290.565 329.88 295.171 322.882 298.593 319.115C302.284 315.048 308.814 310.414 324.524 303.116L324.477 293.264C324.445 285.021 325.029 282.861 328.026 280.071C330.013 278.227 332.694 276.336 333.988 275.863C335.281 275.374 336.527 274.933 336.748 274.87ZM237.631 558.465H344.161C448.61 558.465 450.77 558.528 453.862 561.617C455.597 563.351 457.442 566.362 457.979 568.316C458.499 570.271 457.963 573.975 456.796 576.544C455.613 579.114 452.884 582.14 450.707 583.243C447.6 584.819 424.477 585.166 237.505 584.473L233.688 580.138C231.385 577.522 229.918 573.912 229.965 570.996C229.997 568.127 231.559 564.66 233.83 562.327L237.631 558.465ZM239.618 624.667L343.183 624.698C422.206 624.714 447.679 625.187 450.644 626.668C452.774 627.74 455.534 630.388 456.78 632.548C458.168 634.959 458.657 638.191 458.042 640.823C457.474 643.219 455.597 646.576 453.862 648.31C450.77 651.415 448.61 651.462 237.773 651.462L233.83 647.522C231.227 644.937 229.855 641.753 229.792 638.206C229.729 634.029 230.801 631.917 234.666 628.749L239.618 624.667Z" fill="white"/>
</g>
<defs>
<linearGradient id="paint0_linear_8_99" x1="-103" y1="874.5" x2="1124" y2="874.5" gradientUnits="userSpaceOnUse">
<stop stop-color="#3B82F6"/>
<stop offset="1" stop-color="#10B981"/>
</linearGradient>
<linearGradient id="paint1_linear_8_99" x1="510.5" y1="0" x2="510.5" y2="1749" gradientUnits="userSpaceOnUse">
<stop stop-color="white" stop-opacity="0"/>
<stop offset="1" stop-color="#F4F6F8"/>
</linearGradient>
<clipPath id="clip0_8_99">
<rect width="1024" height="1024" fill="white"/>
</clipPath>
</defs>
</svg>
