<svg width="1003" height="1024" viewBox="0 0 1003 1024" fill="none" xmlns="http://www.w3.org/2000/svg">
<path fill-rule="evenodd" clip-rule="evenodd" d="M805.792 0L817.092 6.42006C823.307 9.96918 831.353 16.2988 834.946 20.5261C838.563 24.7534 843.06 31.7612 844.936 36.1242C847.399 41.7982 848.597 54.1184 849.863 115.245L900.148 115.222C938.298 115.199 953.304 116.013 962.299 118.613C970.797 121.054 977.261 125.078 985.058 132.764C992.267 139.862 997.239 147.322 999.771 154.805C1003.27 165.249 1003.52 196.829 1002.41 979.919L995.635 992.013C991.906 998.659 985.306 1006.75 980.945 1009.98C976.583 1013.24 967.949 1017.72 961.734 1019.95C950.999 1023.8 927.947 1024 501.818 1024C75.6885 1024 52.6362 1023.8 41.901 1019.95C35.6859 1017.72 26.691 1012.88 21.9223 1009.19C16.7016 1005.17 10.6222 997.144 0 975.397L0.0226052 571.883C0.0452055 218.847 0.474613 166.876 3.45786 156.5C5.96649 147.774 9.85374 141.648 18.1707 133.329C26.465 125.033 32.6123 121.122 41.336 118.59C51.5965 115.629 78.5813 115.245 428.367 116.398L441.927 121.574C449.385 124.4 460.075 129.419 465.657 132.674C471.239 135.952 481.681 144.564 501.818 164.978L514.813 151.798C521.955 144.564 532.373 135.952 537.978 132.674C543.583 129.419 554.25 124.513 561.709 121.8C573.303 117.573 581.1 116.737 655.5 115.245L655.477 84.1616C655.462 63.4396 656.562 49.3109 658.777 41.7756C660.608 35.5138 665.896 26.0645 670.665 20.5487C675.366 15.1007 683.795 8.27374 689.4 5.4028C699.164 0.3843 701.695 0.158241 805.792 0ZM695.05 72.6552V96.0297H810.312C811.397 71.5023 811.126 61.081 810.448 57.0346C809.747 52.9881 806.628 47.1332 803.532 44.0362C797.882 38.3847 797.882 38.3847 752.817 38.3847C708.452 38.3847 707.661 38.4752 701.401 43.8327C695.209 49.1677 695.05 49.8459 695.05 72.6552ZM693.92 192.105H811.442V135.59H693.92V192.105ZM42.0592 165.023C38.963 169.996 38.5788 209.511 38.5336 520.455C38.511 810.736 39.0308 871.343 41.5846 876.497C43.2796 879.91 46.5793 883.731 48.9297 884.974C51.6191 886.398 123.081 887.641 243.044 888.365L432.887 889.495C453.905 898.063 464.844 903.918 470.742 908.032L481.477 915.492C481.477 243.895 481.161 213.919 477.726 205.103C475.669 199.813 470.72 190.929 466.742 185.323C462.764 179.739 454.538 171.895 448.458 167.916C442.379 163.96 431.305 159.123 423.847 157.179C412.117 154.127 386.353 153.652 232.874 153.697C94.7858 153.742 54.3538 154.375 50.4891 156.568C47.7771 158.128 43.9802 161.948 42.0592 165.023ZM554.363 168.459C547.832 172.754 539.538 180.598 535.899 185.888C532.26 191.178 527.672 200.084 525.684 205.668C522.429 214.823 522.068 250.744 522.113 565.666L522.158 915.492C538.792 903.918 549.73 898.063 557.188 895.034L570.749 889.495C894.34 887.574 951.768 886.489 954.954 884.703C957.44 883.324 960.763 879.255 962.322 875.66C964.605 870.484 965.057 796.811 964.582 517.131L963.994 165.113C953.824 154.941 952.446 154.782 901.776 154.24L849.863 153.675C848.733 631.223 848.687 634.185 844.009 646.482C841.433 653.309 828.844 677.226 816.075 699.606C803.306 721.986 789.994 744.863 786.491 750.469C782.988 756.075 776.231 762.902 771.485 765.66C766.377 768.622 758.942 770.701 753.246 770.747C747.958 770.792 739.573 768.78 734.601 766.293C729.629 763.807 723.708 758.969 721.425 755.555C719.142 752.142 705.718 728.994 691.57 704.127C677.445 679.261 663.794 653.829 661.263 647.613C656.698 636.49 656.63 632.263 656.02 394.992L655.432 153.675C602.547 153.923 586.659 155.167 578.659 157.292C571.833 159.123 560.895 164.141 554.363 168.459ZM693.536 425.329L693.92 617.095H732.341V230.534C704.904 230.534 696.09 231.213 695.05 232.049C694.011 232.863 693.333 319.85 693.536 425.329ZM770.377 425.329L770.762 617.095H811.442L810.312 231.665C782.13 230.648 773.044 231.077 771.982 231.959C770.875 232.84 770.174 318.923 770.377 425.329ZM730.646 694.045C742.15 714.006 752.071 730.305 752.681 730.259C753.292 730.237 762.964 714.255 774.152 694.746C785.339 675.237 794.741 658.441 795.057 657.401C795.373 656.361 776.299 655.525 752.681 655.525C729.064 655.525 709.741 656.044 709.741 656.655C709.741 657.265 719.142 674.107 730.646 694.045ZM44.161 976.528L49.8111 983.309H479.217C477.093 975.42 474.177 969.068 471.352 964.094C468.527 959.121 461.747 951.051 456.323 946.145C450.899 941.24 441.859 935.136 436.277 932.582C426.333 928.038 421.926 927.902 236.264 926.795C131.85 926.184 44.7938 924.783 42.8276 923.72C39.641 922.025 39.1664 924.579 38.8726 945.761C38.5336 968.299 38.85 970.153 44.161 976.528ZM765.676 926.524C590.682 926.795 582.682 926.976 571.314 931.203C564.782 933.622 554.476 939.974 548.397 945.332C542.34 950.667 535.063 959.121 532.26 964.094C529.458 969.068 526.542 975.42 525.774 978.223L524.418 983.309H953.824C964.718 970.243 965.124 968.005 965.124 946.01C965.124 932.966 964.356 922.387 963.429 922.545C962.503 922.681 958.683 923.585 954.954 924.534C951.225 925.484 866.045 926.388 765.676 926.524ZM250.389 230.715C250.705 230.625 254.254 231.868 258.299 233.496C263.316 235.53 266.548 238.921 268.514 244.234C270.074 248.506 271.317 256.599 271.249 262.183C271.136 272.084 271.385 272.446 280.832 276.176C286.143 278.278 295.929 284.902 302.573 290.87C309.218 296.86 317.15 306.829 320.201 313.046C323.411 319.556 326.371 330.588 327.185 339.043C328.496 352.787 328.202 354.143 322.642 359.953C318.71 364.067 314.371 366.17 309.828 366.17C305.918 366.17 300.381 363.954 297.081 361.083C292.855 357.444 290.618 352.493 289.126 343.564C287.928 336.42 284.651 328.011 281.419 323.784C278.346 319.737 272.763 314.922 269.034 313.046C265.305 311.192 256.921 309.632 250.389 309.587C241.756 309.542 236.354 310.943 230.614 314.696C226.252 317.544 220.353 324.439 217.46 330.023C213.709 337.302 212.443 343.089 212.94 350.481C213.437 357.376 215.72 363.525 219.879 369.131C223.291 373.72 229.393 379.123 233.439 381.112C237.484 383.124 248.423 385.611 257.734 386.673C267.701 387.803 279.34 390.855 285.985 394.11C292.2 397.14 301.647 404.577 306.98 410.59C312.336 416.626 318.913 426.143 321.625 431.727C325.58 439.842 326.575 445.991 326.62 462.244C326.665 479.696 325.806 484.353 320.653 495.023C317.173 502.212 309.308 512.452 302.008 519.324C295.07 525.857 285.397 532.458 271.679 536.844L270.571 552.668C269.644 566.164 268.605 569.238 263.61 573.578C260.333 576.427 254.728 578.665 250.954 578.665C246.728 578.665 242.049 576.54 238.524 573.013C233.665 568.153 232.874 565.327 232.874 552.668C232.874 538.697 232.557 537.861 226.659 535.646C223.246 534.38 217.054 531.577 212.918 529.429C208.782 527.304 200.894 520.703 195.402 514.803C189.911 508.903 183.243 499.228 180.577 493.328C177.932 487.427 175.243 477.006 174.633 470.157C173.638 459.215 174.203 456.909 179.266 450.942C183.718 445.674 186.882 444.16 193.323 444.16C199.561 444.16 202.996 445.72 207.087 450.376C210.251 453.993 212.533 459.441 212.533 463.375C212.533 467.105 213.889 473.457 215.562 477.503C217.234 481.55 222.319 488.151 226.862 492.197C232.264 497.012 238.456 500.019 244.739 500.946C250.027 501.714 257.892 501.217 262.254 499.861C266.616 498.504 273.396 494.051 277.374 489.982C281.329 485.913 285.646 479.787 286.979 476.373C288.29 472.96 289.375 466.607 289.375 462.244C289.375 457.904 287.341 450.263 284.855 445.29C282.368 440.317 277.035 434.032 272.989 431.32C268.221 428.132 259.7 425.713 248.694 424.425C238.863 423.272 226.161 419.859 218.455 416.332C210.409 412.647 201.256 406.001 195.289 399.513C189.843 393.613 183.13 383.938 180.351 378.038C176.35 369.56 175.288 363.253 175.266 348.085C175.243 332.193 176.237 326.722 181.029 316.437C184.215 309.61 190.815 299.573 195.719 294.17C201.007 288.338 210.364 281.692 232.874 271.225L232.806 257.096C232.761 245.274 233.597 242.177 237.891 238.175C240.739 235.53 244.581 232.818 246.434 232.14C248.287 231.439 250.073 230.806 250.389 230.715ZM108.369 637.44H261.011C410.671 637.44 413.767 637.53 418.196 641.961C420.682 644.448 423.327 648.765 424.095 651.569C424.841 654.372 424.073 659.684 422.4 663.369C420.705 667.054 416.795 671.394 413.676 672.976C409.224 675.237 376.092 675.734 108.188 674.74L102.718 668.523C99.4188 664.77 97.317 659.594 97.3848 655.412C97.43 651.297 99.6674 646.324 102.922 642.978L108.369 637.44ZM111.216 732.384L259.61 732.43C372.838 732.452 409.337 733.13 413.586 735.255C416.637 736.793 420.592 740.59 422.378 743.687C424.366 747.146 425.067 751.78 424.186 755.555C423.372 758.992 420.682 763.807 418.196 766.293C413.767 770.747 410.671 770.814 108.572 770.814L102.922 765.163C99.1928 761.456 97.2266 756.889 97.1362 751.803C97.0458 745.812 98.5826 742.783 104.12 738.239L111.216 732.384Z" fill="black"/>
</svg>
